<?xml version="1.0" encoding="iso-8859-1"?>
<!-- Generator: Adobe Illustrator 24.3.0, SVG Export Plug-In . SVG Version: 6.00 Build 0)  -->
<svg version="1.1" id="Layer_1" xmlns="http://www.w3.org/2000/svg" xmlns:xlink="http://www.w3.org/1999/xlink" x="0px" y="0px"
	 viewBox="0 0 1277.101 354.901" style="enable-background:new 0 0 1277.101 354.901;" xml:space="preserve">
<g id="Group_765" transform="translate(-1711.565 81.014)">
	<g id="Group_764">
		<g>
			<defs>
				<rect id="SVGID_385_" x="1667.116" y="-287.343" width="1366" height="768"/>
			</defs>
			<clipPath id="SVGID_2_">
				<use xlink:href="#SVGID_385_"  style="overflow:visible;"/>
			</clipPath>
			<g id="Group_763" style="clip-path:url(#SVGID_2_);">
				<path id="Path_333_1_" style="fill-rule:evenodd;clip-rule:evenodd;fill:#002361;" d="M1865.461,254.383l-59.01-140.876h-20.369
					l-58.635,140.876h28.74l15.038-36.363h50.452l15.038,36.363H1865.461z M1812.345,193.464h-32.359l15.985-43.21h0.38
					L1812.345,193.464z"/>
				<g id="Group_762">
					<g>
						<defs>
							<rect id="SVGID_387_" x="1667.116" y="-287.343" width="1366" height="768"/>
						</defs>
						<clipPath id="SVGID_3_">
							<use xlink:href="#SVGID_387_"  style="overflow:visible;"/>
						</clipPath>
						<g id="Group_761" style="clip-path:url(#SVGID_3_);">
							<path id="Path_334_1_" style="fill-rule:evenodd;clip-rule:evenodd;fill:#002361;" d="M1993.792,192.538v-2.748h-82.754
								v21.935h53.1c-7.006,14.314-21.578,23.364-37.514,23.3c-18.5,0-33.925-9.6-41.122-26.724
								c-2.308-5.421-3.531-11.242-3.6-17.134c0-24.33,19.018-44.2,43.517-44.2c13.365,0,26.556,6.514,33.921,17.821h28.1
								c-8.743-24.33-36.493-39.752-61.506-39.752c-36.328,0-67.513,29.128-67.513,65.962c0,37.526,31.361,65.959,68.2,65.959
								c35.461,0,67.164-28.265,67.164-64.412"/>
							<path id="Path_335_1_" style="fill-rule:evenodd;clip-rule:evenodd;fill:#002361;" d="M2097.951,208.123V127.6h-23.47v80.523
								c0,14.739-4.8,26.9-21.931,26.9s-21.932-12.163-21.932-26.9V127.6h-23.467v80.523c0,10.283,1.535,22.273,7.884,30.667
								c8.563,11.652,23.47,18.162,37.694,18.162c14.558,0,29.3-6.682,37.863-18.845c5.991-8.74,7.362-19.7,7.362-29.984"/>
							<rect id="Rectangle_309" x="2119.717" y="127.596" style="fill:#002361;" width="23.47" height="126.785"/>
							<path id="Path_336_1_" style="fill-rule:evenodd;clip-rule:evenodd;fill:#002361;" d="M2280.759,254.382l-53.108-126.785
								h-18.331l-52.769,126.785h25.873l13.53-32.724h45.405l13.533,32.724H2280.759z M2232.959,199.558h-29.124l14.394-38.892
								h0.337L2232.959,199.558z"/>
							<path id="Path_337_1_" style="fill-rule:evenodd;clip-rule:evenodd;fill:#002361;" d="M2387.024,212.504
								c0-17.51-7.807-29.128-24.18-35.031c10.475-5.9,15.8-14.657,15.8-26.84c-0.225-10.031-4.56-19.529-11.99-26.272
								c-11.419-10.283-26.273-10.854-40.739-10.854h-30.459v140.875h37.695c11.995,0,26.269-1.52,36.355-8.375
								c11.123-7.491,17.712-20.091,17.517-33.5 M2352.564,153.107c0,12.374-11.042,15.229-21.128,15.229h-9.9v-30.457h10.855
								c10.086,0,20.176,3.427,20.176,15.23 M2360.946,211.552c0,15.229-13.894,18.462-26.272,18.462h-13.138v-37.311h13.71
								C2347.432,192.703,2360.946,197.271,2360.946,211.552"/>
							<path id="Path_338_1_" style="fill-rule:evenodd;clip-rule:evenodd;fill:#002361;" d="M2482.736,254.381l-34.44-46.771
								c8.568-2.053,14.563-4.288,21.076-10.455c7.71-7.539,12.163-19.529,12.163-30.322c-0.023-11.964-5.515-23.26-14.911-30.667
								c-8.905-7.192-19.694-8.57-30.832-8.57h-38.9v126.785h23.482v-48.483h0.338l33.583,48.483H2482.736z M2458.061,168.718
								c0,13.364-10.109,19.532-22.614,19.532h-15.073v-38.722h15.077c11.986,0,22.614,6.168,22.614,19.19"/>
							<path id="Path_339_1_" style="fill-rule:evenodd;clip-rule:evenodd;fill:#002361;" d="M2610.585,254.382l-53.113-126.785
								h-18.331l-52.77,126.785h25.869l13.533-32.724h45.405l13.535,32.724H2610.585z M2562.785,199.558h-29.124l14.394-38.892h0.34
								L2562.785,199.558z"/>
							<path id="Path_340_1_" style="fill-rule:evenodd;clip-rule:evenodd;fill:#002361;" d="M2719.268,254.383V127.597h-23.478
								v92.174h-0.345l-52.422-92.174h-26.725v126.786h23.471v-92.177h0.338l52.946,92.177H2719.268z"/>
							<path id="Path_341_1_" style="fill-rule:evenodd;clip-rule:evenodd;fill:#002361;" d="M2854.675,163.749
								c-10.447-23.661-33.936-38.87-59.8-38.72c-35.809,0-65.624,29.639-65.624,65.449c0,36.155,29.815,66.472,66.143,66.472
								c24.668,0,48.825-14.907,58.589-37.859h-27.24c-8.908,9.764-18.166,15.932-31.868,15.932c-23.47,0-42.146-21.417-42.146-44.2
								c0-22.449,17.993-43.862,41.291-43.862c14.044,0,25.016,6.337,33.922,16.788L2854.675,163.749z"/>
							<path id="Path_342_1_" style="fill-rule:evenodd;clip-rule:evenodd;fill:#002361;" d="M2972.116,254.382l-53.108-126.785
								h-18.335l-52.767,126.785h25.869l13.537-32.724h45.4l13.537,32.724H2972.116z M2924.324,199.558h-29.132l14.393-38.892h0.345
								L2924.324,199.558z"/>
							<path id="Path_343_1_" style="fill:#002361;" d="M1869.397,113.507l-29.289,29.289h-15.337l17.939-29.289H1869.397z"/>
							<path id="Path_344_1_" style="fill-rule:evenodd;clip-rule:evenodd;fill:#002361;" d="M1957.284,54.856V52.81h-61.833v16.385
								h39.683c-5.235,10.699-16.127,17.463-28.038,17.41c-13.825,0-25.347-7.169-30.728-19.97c-1.716-4.052-2.626-8.4-2.679-12.8
								c0-18.181,14.209-33.027,32.513-33.027c9.987,0,19.843,4.867,25.355,13.311h20.994c-6.533-18.178-27.27-29.7-45.954-29.7
								c-27.148,0-50.453,21.758-50.453,49.29c0,28.037,23.436,49.289,50.955,49.289c26.506,0,50.188-21.125,50.188-48.138"/>
							<path id="Path_345_1_" style="fill-rule:evenodd;clip-rule:evenodd;fill:#002361;" d="M2026.882,101.071l-25.731-34.949
								c6.4-1.536,10.884-3.2,15.748-7.815c5.76-5.63,9.088-14.589,9.088-22.657c-0.016-8.94-4.119-17.381-11.138-22.917
								c-6.655-5.37-14.719-6.4-23.044-6.4h-29.063v94.738h17.544V64.84h0.257l25.091,36.236L2026.882,101.071z M2008.451,37.063
								c0,9.983-7.554,14.593-16.9,14.593h-11.269V22.72h11.269C2000.51,22.72,2008.451,27.334,2008.451,37.063"/>
							<path id="Path_346_1_" style="fill-rule:evenodd;clip-rule:evenodd;fill:#002361;" d="M2097.121,66.505V6.331h-17.537v60.174
								c0,11.012-3.592,20.1-16.392,20.1s-16.385-9.089-16.385-20.1V6.331h-17.54v60.174c0,7.684,1.151,16.646,5.887,22.917
								c6.4,8.709,17.544,13.573,28.164,13.573c10.886,0,21.893-5,28.295-14.083C2096.092,82.383,2097.121,74.189,2097.121,66.505"
								/>
							<path id="Path_347_1_" style="fill-rule:evenodd;clip-rule:evenodd;fill:#002361;" d="M2168.257,35.65
								c0-8.447-2.429-16.127-8.962-21.766c-8.19-7.166-16.258-7.553-26.633-7.553h-24.963v94.74h17.536v-36.1h7.427
								c10.375,0,18.443-0.384,26.633-7.553C2165.828,51.791,2168.257,44.099,2168.257,35.65 M2150.713,35.651
								c0,11.649-10.754,12.931-19.839,12.931h-5.639V22.719h6.28c9.084,0,19.2,1.413,19.2,12.931"/>
							<path id="Path_348_1_" style="fill-rule:evenodd;clip-rule:evenodd;fill:#002361;" d="M2267.812,53.956
								c-0.122-27.364-22.404-49.448-49.767-49.326c-27.191,0.121-49.205,22.134-49.326,49.326c0,27.274,22.407,49.04,49.543,49.04
								S2267.812,81.23,2267.812,53.956 M2250.272,53.833c0,17.667-14.086,32.774-32.01,32.774s-32-15.107-32-32.774
								c0-17.793,13.825-33.027,32-33.027S2250.272,36.04,2250.272,53.833"/>
							<path id="Path_349_1_" style="fill-rule:evenodd;clip-rule:evenodd;fill:#005FC5;" d="M2396.718-64.198h219.224
								l0.318,162.983c-13.637,15.13-65.482,15.338-86.086-6.287c-15.138-15.874-13.933-46.334,11.292-52.717
								c22.483-5.691,35.249-0.318,32.682,9.3c26.414-16.469,9.173-55.161-40.228-49.247l-24.863,8.981l-16.78-7.63l40.695-2.387
								c-0.4-17.371-9.215-24.687-36.074-24.158c-42.95,0.845-81.074,37.3-100.18,21.621L2396.718-64.198z"/>
						</g>
					</g>
				</g>
			</g>
		</g>
	</g>
</g>
</svg>
